<svg xmlns="http://www.w3.org/2000/svg" viewBox="0 0 566.85 503.89"><defs><style>.cls-1{fill:#7c3aed;}</style></defs><g id="Layer_2" data-name="Layer 2"><g id="OBJECTS"><path class="cls-1" d="M283.42,0C126.89,0,0,126.89,0,283.42A282.85,282.85,0,0,0,105.33,503.89L124.79,408C85.6,366.53,66.63,320.37,59.84,303.08a34.42,34.42,0,0,0-10.48,20.48,25.25,25.25,0,0,1-2.87-14.86c1.63-14.41,15.07-24.82,30-23.25a27.51,27.51,0,0,1,17.12,8.35,38.64,38.64,0,0,0-4.24-.69A37.46,37.46,0,0,0,71,295.8c11.62,21.65,54.56,89.59,146.68,115.07a244.73,244.73,0,0,0,130.22,0C440,385.39,482.94,317.45,494.57,295.8a37.48,37.48,0,0,0-18.42-2.69,38.85,38.85,0,0,0-4.23.69A27.51,27.51,0,0,1,489,285.45c15-1.57,28.4,8.84,30,23.25a25.32,25.32,0,0,1-2.87,14.86,34.38,34.38,0,0,0-10.49-20.48c-6.72,17.13-25.42,62.6-63.89,103.74l19.69,97.07A282.83,282.83,0,0,0,566.85,283.42C566.85,126.89,440,0,283.42,0Zm0,106.17c39,0,70.75,39.1,70.75,87.17h-26c0-33.75-20.09-61.21-44.79-61.21s-44.78,27.46-44.78,61.21h-26C212.68,145.27,244.42,106.17,283.42,106.17Zm61,285.7a231.76,231.76,0,0,1-123.3,0,227.11,227.11,0,0,1-85.37-44.48l28.32-139.65H402.77L430.9,346.45A226.91,226.91,0,0,1,344.43,391.87Z"/></g></g></svg>