<svg xmlns="http://www.w3.org/2000/svg" width="164.857" height="78" viewBox="0 0 164.857 78">
  <g id="Group_7" data-name="Group 7" transform="translate(-878 -1041)">
    <g id="Group_9531" data-name="Group 9531" transform="translate(1920.72 9449) rotate(180)">
      <rect id="Rectangle_139" data-name="Rectangle 139" width="78" height="78" rx="39" transform="translate(999.687 8408) rotate(180)" fill="#fff"/>
      <path id="Path_710" data-name="Path 710" d="M14065.7,8856.41s3.258,15.707,23.416,16.44-19.007,9.52-19.007,9.52Z" transform="translate(14990.483 17242) rotate(180)" fill="#fff"/>
      <path id="Path_711" data-name="Path 711" d="M14117.5,8859.29c-10.006,9.4-20.871,26.04-47.937,26.426s39.8,16.542,39.8,16.542S14127.5,8849.88,14117.5,8859.29Z" transform="translate(15105.833 17254.939) rotate(180)" fill="#fff"/>
      <path id="Path_779" data-name="Path 779" d="M54.388,42.968C45.841,32.783,33.517,16.928,6.45,16.542S46.25,0,46.25,0,62.935,53.152,54.388,42.968Z" transform="translate(877.863 8352.686)" fill="#fff"/>
    </g>
    <path id="XMLID_225_" d="M15.168,75.2a.7.7,0,0,0-.988,0L7.687,81.7,1.193,75.2a.7.7,0,0,0-.988.988L7.193,83.18a.7.7,0,0,0,.988,0l6.987-6.987A.7.7,0,0,0,15.168,75.2Z" transform="translate(952.531 985.808)" fill="#303030"/>
  </g>
</svg>
