<svg xmlns="http://www.w3.org/2000/svg" viewBox="0 0 164.86 78"><defs><style>.cls-1{fill:#fff;}</style></defs><g id="Layer_2" data-name="Layer 2"><g id="Layer_1-2" data-name="Layer 1"><path id="Rectangle_139" data-name="Rectangle 139" class="cls-1" d="M82,0h0a39,39,0,0,1,39,39h0A39,39,0,0,1,82,78h0A39,39,0,0,1,43,39h0A39,39,0,0,1,82,0Z"/><path id="Path_710" data-name="Path 710" class="cls-1" d="M117.94,22.41s3.25,15.71,23.41,16.44-19,9.52-19,9.52Z"/><path id="Path_711" data-name="Path 711" class="cls-1" d="M54.39,12.35c-10,9.4-20.87,26-47.94,26.43s39.8,16.54,39.8,16.54S64.39,2.94,54.39,12.35Z"/><path id="Path_779" data-name="Path 779" class="cls-1" d="M110.47,12.35c8.55,10.18,20.87,26,47.94,26.42s-39.8,16.54-39.8,16.54S101.92,2.16,110.47,12.35Z"/></g></g></svg>